<mxfile host="app.diagrams.net" modified="2024-04-27T00:16:50.655Z" agent="Mozilla/5.0 (Windows NT 10.0; Win64; x64) AppleWebKit/537.36 (KHTML, like Gecko) Chrome/124.0.0.0 Safari/537.36" etag="i1NZoIZqQZr1g0tA4VBW" version="24.3.1" type="github">
  <diagram name="Página-1" id="3U9EgOW-RXNVRTxbTy9U">
    <mxGraphModel dx="1247" dy="671" grid="1" gridSize="10" guides="1" tooltips="1" connect="1" arrows="1" fold="1" page="1" pageScale="1" pageWidth="827" pageHeight="1169" math="0" shadow="0">
      <root>
        <mxCell id="0" />
        <mxCell id="1" parent="0" />
        <mxCell id="rhgXcwyFBJ2ZQ0Ew4rcw-2" value="INÍCIO" style="ellipse;whiteSpace=wrap;html=1;fillColor=#b0e3e6;strokeColor=#0e8088;" vertex="1" parent="1">
          <mxGeometry x="339" y="10" width="150" height="80" as="geometry" />
        </mxCell>
        <mxCell id="rhgXcwyFBJ2ZQ0Ew4rcw-3" value="&lt;div style=&quot;&quot;&gt;&lt;span style=&quot;background-color: initial;&quot;&gt;&amp;nbsp; &amp;nbsp; &amp;nbsp; &amp;nbsp; Insira a quantidade&amp;nbsp; &amp;nbsp; &amp;nbsp; &amp;nbsp; &amp;nbsp; &amp;nbsp; inicial de peças&amp;nbsp;&lt;/span&gt;&lt;/div&gt;&lt;div style=&quot;&quot;&gt;no sistema&lt;/div&gt;" style="shape=display;whiteSpace=wrap;html=1;align=center;fillColor=#e6d0de;strokeColor=#996185;gradientColor=#d5739d;" vertex="1" parent="1">
          <mxGeometry x="337.75" y="150" width="151.25" height="60" as="geometry" />
        </mxCell>
        <mxCell id="rhgXcwyFBJ2ZQ0Ew4rcw-14" style="edgeStyle=orthogonalEdgeStyle;rounded=0;orthogonalLoop=1;jettySize=auto;html=1;entryX=0.5;entryY=0;entryDx=0;entryDy=0;" edge="1" parent="1" source="rhgXcwyFBJ2ZQ0Ew4rcw-8" target="rhgXcwyFBJ2ZQ0Ew4rcw-13">
          <mxGeometry relative="1" as="geometry" />
        </mxCell>
        <mxCell id="rhgXcwyFBJ2ZQ0Ew4rcw-8" value="&lt;div&gt;&lt;br&gt;&lt;/div&gt;&lt;div&gt;&lt;br&gt;&lt;/div&gt;Quantidade&lt;div&gt;(X)&lt;/div&gt;" style="shape=manualInput;whiteSpace=wrap;html=1;fillColor=#dae8fc;strokeColor=#6c8ebf;gradientColor=#7ea6e0;" vertex="1" parent="1">
          <mxGeometry x="370" y="240" width="84" height="60" as="geometry" />
        </mxCell>
        <mxCell id="rhgXcwyFBJ2ZQ0Ew4rcw-11" style="edgeStyle=orthogonalEdgeStyle;rounded=0;orthogonalLoop=1;jettySize=auto;html=1;entryX=0.499;entryY=-0.054;entryDx=0;entryDy=0;entryPerimeter=0;" edge="1" parent="1" source="rhgXcwyFBJ2ZQ0Ew4rcw-2" target="rhgXcwyFBJ2ZQ0Ew4rcw-3">
          <mxGeometry relative="1" as="geometry" />
        </mxCell>
        <mxCell id="rhgXcwyFBJ2ZQ0Ew4rcw-12" style="edgeStyle=orthogonalEdgeStyle;rounded=0;orthogonalLoop=1;jettySize=auto;html=1;" edge="1" parent="1">
          <mxGeometry relative="1" as="geometry">
            <mxPoint x="413.9737037037037" y="210" as="sourcePoint" />
            <mxPoint x="414" y="253" as="targetPoint" />
            <Array as="points">
              <mxPoint x="414" y="253" />
            </Array>
          </mxGeometry>
        </mxCell>
        <mxCell id="rhgXcwyFBJ2ZQ0Ew4rcw-13" value="Deseja&lt;div&gt;adicionar/somar&lt;/div&gt;&lt;div&gt;peças?&lt;/div&gt;" style="rhombus;whiteSpace=wrap;html=1;fillColor=#e1d5e7;strokeColor=#9673a6;" vertex="1" parent="1">
          <mxGeometry x="352" y="350" width="120" height="110" as="geometry" />
        </mxCell>
        <mxCell id="rhgXcwyFBJ2ZQ0Ew4rcw-15" value="&lt;div style=&quot;&quot;&gt;&lt;span style=&quot;background-color: initial;&quot;&gt;Informe a&amp;nbsp;&lt;/span&gt;&lt;/div&gt;&lt;div&gt;&lt;div style=&quot;&quot;&gt;&lt;span style=&quot;background-color: initial;&quot;&gt;quantidade&lt;/span&gt;&lt;/div&gt;&lt;div style=&quot;&quot;&gt;subtrair&lt;/div&gt;&lt;/div&gt;" style="shape=display;whiteSpace=wrap;html=1;align=center;fillColor=#e6d0de;strokeColor=#996185;gradientColor=#d5739d;" vertex="1" parent="1">
          <mxGeometry x="150" y="375" width="130" height="60" as="geometry" />
        </mxCell>
        <mxCell id="rhgXcwyFBJ2ZQ0Ew4rcw-16" value="Insira a&amp;nbsp;&lt;div&gt;quantidade&lt;/div&gt;&lt;div&gt;somar&lt;/div&gt;" style="shape=display;whiteSpace=wrap;html=1;align=center;fillColor=#e6d0de;strokeColor=#996185;gradientColor=#d5739d;" vertex="1" parent="1">
          <mxGeometry x="550" y="375" width="130" height="60" as="geometry" />
        </mxCell>
        <mxCell id="rhgXcwyFBJ2ZQ0Ew4rcw-17" style="edgeStyle=orthogonalEdgeStyle;rounded=0;orthogonalLoop=1;jettySize=auto;html=1;entryX=1;entryY=0.5;entryDx=0;entryDy=0;entryPerimeter=0;" edge="1" parent="1" source="rhgXcwyFBJ2ZQ0Ew4rcw-13" target="rhgXcwyFBJ2ZQ0Ew4rcw-15">
          <mxGeometry relative="1" as="geometry" />
        </mxCell>
        <mxCell id="rhgXcwyFBJ2ZQ0Ew4rcw-21" value="Não" style="edgeLabel;html=1;align=center;verticalAlign=middle;resizable=0;points=[];" vertex="1" connectable="0" parent="rhgXcwyFBJ2ZQ0Ew4rcw-17">
          <mxGeometry x="-0.0278" y="-1" relative="1" as="geometry">
            <mxPoint as="offset" />
          </mxGeometry>
        </mxCell>
        <mxCell id="rhgXcwyFBJ2ZQ0Ew4rcw-20" style="edgeStyle=orthogonalEdgeStyle;rounded=0;orthogonalLoop=1;jettySize=auto;html=1;entryX=-0.025;entryY=0.505;entryDx=0;entryDy=0;entryPerimeter=0;" edge="1" parent="1" source="rhgXcwyFBJ2ZQ0Ew4rcw-13" target="rhgXcwyFBJ2ZQ0Ew4rcw-16">
          <mxGeometry relative="1" as="geometry" />
        </mxCell>
        <mxCell id="rhgXcwyFBJ2ZQ0Ew4rcw-22" value="Sim" style="edgeLabel;html=1;align=center;verticalAlign=middle;resizable=0;points=[];" vertex="1" connectable="0" parent="rhgXcwyFBJ2ZQ0Ew4rcw-20">
          <mxGeometry x="-0.1051" y="-1" relative="1" as="geometry">
            <mxPoint as="offset" />
          </mxGeometry>
        </mxCell>
        <mxCell id="rhgXcwyFBJ2ZQ0Ew4rcw-23" value="&lt;div&gt;&lt;br&gt;&lt;/div&gt;Quantidade&lt;div&gt;a subtrair (x)&lt;/div&gt;" style="shape=manualInput;whiteSpace=wrap;html=1;fillColor=#dae8fc;gradientColor=#7ea6e0;strokeColor=#6c8ebf;" vertex="1" parent="1">
          <mxGeometry x="175" y="490" width="80" height="80" as="geometry" />
        </mxCell>
        <mxCell id="rhgXcwyFBJ2ZQ0Ew4rcw-24" value="&lt;div&gt;&lt;br&gt;&lt;/div&gt;Quantidade&lt;div&gt;a somar (X)&lt;/div&gt;" style="shape=manualInput;whiteSpace=wrap;html=1;fillColor=#dae8fc;gradientColor=#7ea6e0;strokeColor=#6c8ebf;" vertex="1" parent="1">
          <mxGeometry x="575" y="490" width="80" height="80" as="geometry" />
        </mxCell>
        <mxCell id="rhgXcwyFBJ2ZQ0Ew4rcw-28" style="edgeStyle=orthogonalEdgeStyle;rounded=0;orthogonalLoop=1;jettySize=auto;html=1;entryX=0.493;entryY=0.163;entryDx=0;entryDy=0;entryPerimeter=0;" edge="1" parent="1" source="rhgXcwyFBJ2ZQ0Ew4rcw-15" target="rhgXcwyFBJ2ZQ0Ew4rcw-23">
          <mxGeometry relative="1" as="geometry" />
        </mxCell>
        <mxCell id="rhgXcwyFBJ2ZQ0Ew4rcw-29" style="edgeStyle=orthogonalEdgeStyle;rounded=0;orthogonalLoop=1;jettySize=auto;html=1;entryX=0.496;entryY=0.188;entryDx=0;entryDy=0;entryPerimeter=0;" edge="1" parent="1" source="rhgXcwyFBJ2ZQ0Ew4rcw-16" target="rhgXcwyFBJ2ZQ0Ew4rcw-24">
          <mxGeometry relative="1" as="geometry" />
        </mxCell>
        <mxCell id="rhgXcwyFBJ2ZQ0Ew4rcw-30" value="X - Y" style="rounded=0;whiteSpace=wrap;html=1;fillColor=#d5e8d4;strokeColor=#82b366;" vertex="1" parent="1">
          <mxGeometry x="155" y="640" width="120" height="60" as="geometry" />
        </mxCell>
        <mxCell id="rhgXcwyFBJ2ZQ0Ew4rcw-31" value="X + Z" style="rounded=0;whiteSpace=wrap;html=1;fillColor=#d5e8d4;strokeColor=#82b366;" vertex="1" parent="1">
          <mxGeometry x="555" y="640" width="120" height="60" as="geometry" />
        </mxCell>
        <mxCell id="rhgXcwyFBJ2ZQ0Ew4rcw-32" style="edgeStyle=orthogonalEdgeStyle;rounded=0;orthogonalLoop=1;jettySize=auto;html=1;entryX=0.497;entryY=-0.061;entryDx=0;entryDy=0;entryPerimeter=0;" edge="1" parent="1" source="rhgXcwyFBJ2ZQ0Ew4rcw-23" target="rhgXcwyFBJ2ZQ0Ew4rcw-30">
          <mxGeometry relative="1" as="geometry" />
        </mxCell>
        <mxCell id="rhgXcwyFBJ2ZQ0Ew4rcw-33" style="edgeStyle=orthogonalEdgeStyle;rounded=0;orthogonalLoop=1;jettySize=auto;html=1;entryX=0.503;entryY=-0.061;entryDx=0;entryDy=0;entryPerimeter=0;" edge="1" parent="1" source="rhgXcwyFBJ2ZQ0Ew4rcw-24" target="rhgXcwyFBJ2ZQ0Ew4rcw-31">
          <mxGeometry relative="1" as="geometry" />
        </mxCell>
        <mxCell id="rhgXcwyFBJ2ZQ0Ew4rcw-36" style="edgeStyle=orthogonalEdgeStyle;rounded=0;orthogonalLoop=1;jettySize=auto;html=1;entryX=0.5;entryY=0;entryDx=0;entryDy=0;" edge="1" parent="1" source="rhgXcwyFBJ2ZQ0Ew4rcw-34" target="rhgXcwyFBJ2ZQ0Ew4rcw-35">
          <mxGeometry relative="1" as="geometry" />
        </mxCell>
        <mxCell id="rhgXcwyFBJ2ZQ0Ew4rcw-34" value="Resultado Final" style="shape=display;whiteSpace=wrap;html=1;fillColor=#e6d0de;strokeColor=#996185;gradientColor=#d5739d;" vertex="1" parent="1">
          <mxGeometry x="324" y="760" width="180" height="80" as="geometry" />
        </mxCell>
        <mxCell id="rhgXcwyFBJ2ZQ0Ew4rcw-35" value="FIM" style="ellipse;whiteSpace=wrap;html=1;fillColor=#b0e3e6;strokeColor=#0e8088;" vertex="1" parent="1">
          <mxGeometry x="354" y="920" width="120" height="80" as="geometry" />
        </mxCell>
        <mxCell id="rhgXcwyFBJ2ZQ0Ew4rcw-38" style="edgeStyle=orthogonalEdgeStyle;rounded=0;orthogonalLoop=1;jettySize=auto;html=1;exitX=0;exitY=0.5;exitDx=0;exitDy=0;entryX=0.649;entryY=-0.027;entryDx=0;entryDy=0;entryPerimeter=0;" edge="1" parent="1" source="rhgXcwyFBJ2ZQ0Ew4rcw-31" target="rhgXcwyFBJ2ZQ0Ew4rcw-34">
          <mxGeometry relative="1" as="geometry" />
        </mxCell>
        <mxCell id="rhgXcwyFBJ2ZQ0Ew4rcw-39" style="edgeStyle=orthogonalEdgeStyle;rounded=0;orthogonalLoop=1;jettySize=auto;html=1;exitX=1;exitY=0.5;exitDx=0;exitDy=0;entryX=0.445;entryY=-0.048;entryDx=0;entryDy=0;entryPerimeter=0;" edge="1" parent="1" source="rhgXcwyFBJ2ZQ0Ew4rcw-30" target="rhgXcwyFBJ2ZQ0Ew4rcw-34">
          <mxGeometry relative="1" as="geometry" />
        </mxCell>
      </root>
    </mxGraphModel>
  </diagram>
</mxfile>
